<svg xmlns="http://www.w3.org/2000/svg" width="140" height="28" viewBox="0 0 140 28" fill="#202020"><path fill-rule="evenodd" clip-rule="evenodd" d="M21.2125 0V21.033H17.7125V0H21.2125ZM3.6852 3.61779H6.72782C9.50864 3.61779 10.7341 4.48971 10.7341 6.26086C10.7341 7.80003 9.50864 8.84513 7.04888 8.84513H3.6852V3.61779ZM0 21.033H7.4572C11.3762 21.033 15.2952 19.6439 15.2952 15.1722C15.2952 12.5291 13.4276 10.5001 10.8251 10.2065V10.1454C12.9544 9.51238 14.423 7.97367 14.423 5.65103C14.423 1.9059 11.2017 0.484809 8.07179 0.484809H0V21.033ZM3.6852 11.9781H7.22341C10.2063 11.9781 11.6151 12.7338 11.6151 14.8833C11.6151 17.5787 8.97664 17.9 7.07641 17.9H3.6852V11.9781ZM31.197 9.89069C28.6224 9.89069 27.0712 11.8915 27.0712 14.0683C27.0712 16.2451 28.6219 18.2464 31.197 18.2464C33.7715 18.2464 35.318 16.2446 35.318 14.0683C35.318 11.892 33.7715 9.89069 31.197 9.89069ZM31.197 21.3794C26.9518 21.3794 23.5606 18.451 23.5606 14.0683C23.5606 9.68555 26.9518 6.75261 31.197 6.75308C35.4375 6.75308 38.8334 9.68509 38.8334 14.0683C38.8334 18.4515 35.437 21.3794 31.197 21.3794ZM43.927 14.0683C43.927 11.8915 45.4782 9.89069 48.0527 9.89069C50.6273 9.89069 52.1738 11.892 52.1738 14.0683C52.1738 16.2446 50.6273 18.2464 48.0527 18.2464C45.4782 18.2464 43.927 16.2451 43.927 14.0683ZM40.4163 14.0683C40.4163 18.451 43.808 21.3794 48.0527 21.3794C52.2928 21.3794 55.6891 18.4515 55.6891 14.0683C55.6891 9.68509 52.2933 6.75308 48.0527 6.75308C43.8075 6.75261 40.4163 9.68555 40.4163 14.0683ZM61.1635 7.10128H57.8274V21.033H61.3381V13.4284C61.3381 11.5683 62.2466 9.89022 64.5552 9.89022C66.2529 9.89022 66.9552 11.0168 66.9552 12.7338V21.033H70.4612V13.4853C70.4612 11.6887 71.283 9.89022 73.4763 9.89022C75.5553 9.89022 76.0784 11.3998 76.0784 13.1394V21.0335H79.5891V12.7343C79.5891 9.39615 78.2712 6.75076 74.5268 6.75076C72.4249 6.75076 70.9335 7.56804 69.9101 9.33502C69.1807 7.59073 67.6846 6.75076 65.5184 6.75076C63.1781 6.75076 61.8336 7.97367 61.2186 9.28039H61.1635V7.10128ZM94.0767 14.0683C94.0767 16.2474 92.5302 18.2464 89.951 18.2464C87.376 18.2464 85.8253 16.2474 85.8253 14.0683C85.8253 11.8915 87.376 9.8856 89.951 9.8856C92.5302 9.8856 94.0767 11.8915 94.0767 14.0683ZM82.4341 21.033H85.7702V18.9447H85.8253C86.8529 20.6227 88.6934 21.3789 90.6571 21.3789C94.9802 21.3789 97.5869 18.1866 97.5869 14.0678C97.5869 9.94672 94.8061 6.75262 90.7999 6.75262C88.1698 6.75262 86.7614 7.96858 86.0315 8.87477H85.9443V0H82.4336V21.033H82.4341ZM106.311 9.36466C104.237 9.36466 102.947 10.6691 102.686 12.675H109.882C109.849 10.6422 108.505 9.36466 106.311 9.36466ZM113.392 14.3304V15.2866H102.686C102.915 17.3471 104.499 18.5969 106.458 18.5969C108.211 18.5969 109.354 17.7824 110.23 16.7142L112.745 18.5969C111.111 20.5963 109.028 21.3794 106.811 21.3794C102.562 21.3794 99.175 18.451 99.175 14.0683C99.175 9.68555 102.562 6.75308 106.811 6.75308C110.731 6.75308 113.392 9.48089 113.392 14.3304ZM115.678 7.10128H119.188V9.3077H119.248C120.01 7.71158 121.556 6.75076 123.401 6.75076C123.841 6.75076 124.25 6.83966 124.658 6.95774V10.3232C124.075 10.1796 123.516 10.0634 122.96 10.0634C119.656 10.0634 119.188 12.8227 119.188 13.5789V21.0335H115.677V7.10128H115.678ZM136.664 13.9836C136.664 11.5683 135.053 9.89022 132.511 9.89022C130.051 9.89022 128.357 11.5683 128.357 14.0382C128.357 16.2446 130.115 18.0727 132.483 18.0727C135.085 18.0727 136.664 16.3016 136.664 13.9836ZM136.664 9.19148V7.10128H140V19.7851C140 24.8036 137.545 28 132.075 28C129.468 28 127.095 27.4531 125.113 25.7047L127.215 22.8546C128.619 24.1386 130.083 24.8675 132.043 24.8675C135.439 24.8675 136.485 22.95 136.485 20.1953V19.1776H136.435C135.407 20.5412 133.594 21.2062 131.837 21.2062C127.628 21.2062 124.847 18.0116 124.847 14.0683C124.847 9.94486 127.45 6.75076 131.777 6.75076C133.737 6.75076 135.581 7.50645 136.609 9.19148H136.664Z"></path></svg>