<svg xmlns="http://www.w3.org/2000/svg" width="102" height="32" viewBox="0 0 102 32" fill="#202020"><path fill-rule="evenodd" clip-rule="evenodd" d="M7.86906 32H10.2306V19.2H7.86906V32ZM16.5256 31.808H18.6407V23.732L27.5437 32V19.392H25.4345V27.33L16.5256 19.2V31.808ZM32.3722 28.708C33.5234 29.618 34.9052 30.144 36.3865 30.144C37.8295 30.144 38.8417 29.64 38.8417 28.527C38.8417 27.557 38.1961 27.177 37.0656 26.752L35.2354 26.107C33.548 25.499 32.2647 24.611 32.2647 22.57C32.2647 20.387 34.2074 19.2 36.5304 19.2C37.9536 19.2 39.2507 19.563 40.2639 20.206V22.371C39.2103 21.581 38.0571 21.037 36.5758 21.037C35.3004 21.037 34.3473 21.52 34.3473 22.527C34.3473 23.437 34.9456 23.801 35.9992 24.167L38.0384 24.893C40.0145 25.598 40.9213 26.691 40.9213 28.489C40.9213 30.751 38.9599 32 36.3865 32C34.6952 32 33.2572 31.52 32.3722 30.914V28.708ZM46.4308 32H48.7914V19.2H46.4308V32ZM59.8656 30.063C62.5267 30.063 63.949 28.331 63.949 25.597C63.949 22.843 62.5258 21.117 59.8656 21.117H57.234V30.063H59.8656ZM55.0854 19.2H59.9445C63.6848 19.2 66.1035 21.7 66.1035 25.597C66.1035 29.497 63.6848 32 59.9445 32H55.0854V19.2ZM77.9091 19.2V21.117H72.1955V24.197H77.3197V26.092H72.1945V30.063H77.9091V32H70.039V19.2H77.9091ZM86.2887 24.996H88.6315C90.0182 24.996 90.7998 24.224 90.7998 23.037C90.7998 21.85 90.0182 21.077 88.6315 21.077H86.2887V24.997V24.996ZM86.2887 26.806V32H84.2041V19.2H88.6709C91.2177 19.2 92.8656 20.531 92.8656 23.037C92.8656 25.18 91.951 26.411 90.0024 26.727L94.4347 32H92.0633L87.772 26.807H86.2897L86.2887 26.806ZM7.04411 6.59C7.96762 6.247 8.68712 5.218 8.68712 3.803C8.68712 1.445 7.04411 0.223 4.41551 0.223H0V13.386H4.82552C7.45413 13.386 9.09713 12.078 9.09713 9.613C9.09713 8.219 8.23472 6.997 7.04411 6.59ZM2.07371 5.754V2.153H4.3958C5.85449 2.153 6.6341 2.689 6.6341 3.932C6.6341 5.175 5.8535 5.754 4.3958 5.754H2.07371ZM2.07371 7.598H4.78412C6.22311 7.598 7.00272 8.326 7.00272 9.527C7.00272 10.706 6.22212 11.457 4.78511 11.457H2.0747V7.597L2.07371 7.598ZM18.7314 13.6C21.7503 13.6 23.7836 11.756 23.7836 8.155V0.223H21.6478V7.897C21.6478 10.427 20.6208 11.607 18.7314 11.607C16.842 11.607 15.816 10.427 15.816 7.897V0.223H13.6802V8.133C13.6802 11.756 15.7332 13.6 18.7314 13.6ZM28.8122 12.442C29.6953 13.086 31.1333 13.6 32.8167 13.6C35.3842 13.6 37.3347 12.27 37.3347 9.87C37.3347 7.962 36.4319 6.804 34.4597 6.054L32.4274 5.282C31.3797 4.897 30.7844 4.511 30.7844 3.546C30.7844 2.474 31.7286 1.96 33.002 1.96C34.4804 1.96 35.6306 2.538 36.6783 3.375V1.08C35.672 0.395 34.3779 0.009 32.9606 0.009C30.6405 0.009 28.7097 1.274 28.7097 3.589C28.7097 5.754 29.9831 6.697 31.6665 7.34L33.4948 8.026C34.6243 8.476 35.261 8.884 35.261 9.913C35.261 11.092 34.2547 11.628 32.8167 11.628C31.3383 11.628 29.9624 11.07 28.8122 10.106V12.442ZM44.9662 0.223H42.8314V13.385H44.9662V0.223ZM51.0592 13.369H53.1172V4.806L61.7787 13.573V0.203H59.7266V8.62L51.0592 0V13.369ZM75.1247 0.226V2.197H69.5797V5.365H74.5521V7.314H69.5797V11.397H75.1247V13.389H67.4863V0.226H75.1247ZM80.0971 12.433C80.9802 13.077 82.4172 13.591 84.1016 13.591C86.6681 13.591 88.6196 12.262 88.6196 9.861C88.6196 7.953 87.7158 6.796 85.7446 6.045L83.7113 5.274C82.6636 4.888 82.0683 4.502 82.0683 3.537C82.0683 2.465 83.0125 1.951 84.2859 1.951C85.7643 1.951 86.9145 2.53 87.9622 3.366V1.072C86.9559 0.386 85.6618 0 84.2445 0C81.9244 0 79.9936 1.265 79.9936 3.58C79.9936 5.745 81.267 6.688 82.9504 7.331L84.7787 8.017C85.9082 8.467 86.5449 8.875 86.5449 9.904C86.5449 11.083 85.5396 11.619 84.1006 11.619C82.6222 11.619 81.2463 11.062 80.0971 10.097V12.433ZM92.9947 12.433C93.8778 13.077 95.3158 13.591 96.9992 13.591C99.5667 13.591 101.517 12.262 101.517 9.861C101.517 7.953 100.613 6.796 98.6422 6.045L96.6089 5.274C95.5622 4.888 94.9659 4.502 94.9659 3.537C94.9659 2.465 95.9111 1.951 97.1835 1.951C98.6619 1.951 99.8131 2.53 100.86 3.366V1.072C99.8545 0.386 98.5604 0 97.1431 0C94.822 0 92.8922 1.265 92.8922 3.58C92.8922 5.745 94.1656 6.688 95.849 7.331L97.6773 8.017C98.8068 8.467 99.4435 8.875 99.4435 9.904C99.4435 11.083 98.4372 11.619 96.9992 11.619C95.5208 11.619 94.1449 11.062 92.9947 10.097V12.433Z"></path></svg>