<svg xmlns="http://www.w3.org/2000/svg" width="68" height="38" viewBox="0 0 68 38" fill="black"><path d="M11.6195 1.04415V1.7709L12.2942 1.92602C13.3312 2.18527 13.4874 2.8079 13.9017 4.77884L14.9813 10.3198L11.9722 26.5048L7.87419 6.16859C7.40669 3.93734 7.25156 2.27771 8.91225 1.91434L9.69 1.75921V1.04415H0V1.7709L0.986 2.03121C1.972 2.29046 2.38637 2.7569 3.06106 5.81796L9.64856 36.9949H11.3486L15.7579 13.4435L20.6454 36.9949H21.9948L28.3241 6.78165C29.0509 3.30727 29.3622 2.31915 30.6085 2.0004L31.5934 1.74009V1.04415H24.4747V1.7709L25.5637 1.97809C27.1203 2.2894 27.4826 3.27434 26.7559 7.26934L22.8756 26.5048L18.9444 6.16859C18.5194 4.14559 18.2697 2.27771 19.9824 1.9664L21.1236 1.75921V1.03246L11.6195 1.04415ZM57.7788 1.1419V1.86865L59.075 2.17996C60.2151 2.43921 60.6826 2.85465 60.6826 4.30709V29.4671C60.6826 32.2678 60.6826 35.9515 57.7766 35.9515C56.117 35.9515 54.8229 34.4991 54.9249 33.5131C55.0279 31.9055 57.8298 32.0086 57.9849 29.415C58.1411 27.6088 56.9989 26.7588 55.8577 26.6132C54.2502 26.406 52.2793 27.7543 52.2261 30.452C52.1751 33.9264 54.4574 37.0905 58.3461 37.0905C62.6493 37.0905 65.4649 34.1878 65.4649 28.6362L65.4659 4.35809C65.4659 2.90565 65.8293 2.43815 66.8663 2.17996L68 1.85696V1.13021L57.7788 1.1419ZM40.3006 0.920898C35.8913 0.920898 33.4018 4.60459 33.4018 9.42834C33.4018 18.4033 44.9703 21.8787 44.9703 29.9718C44.9703 33.8106 43.3617 35.9366 41.0391 35.9366C37.5647 35.9366 35.0731 31.7366 34.4516 25.0439H33.6738V36.8717H34.2964C34.8149 35.1716 35.4896 35.0048 36.0602 35.0048C37.0462 35.0048 38.0821 37.0767 41.0911 37.0767C45.7077 37.0767 48.7156 33.0838 48.7178 27.5822C48.7178 16.7925 37.1493 14.1469 37.1493 6.41721C37.1493 4.65346 37.6678 2.06096 40.2624 2.06096C43.9981 2.06096 45.6068 6.98884 46.2283 12.9548H47.0061V1.12915H46.3834C46.1242 2.27027 45.6578 2.78877 44.9831 2.78877C43.7899 2.78877 43.1768 0.92196 40.3144 0.92196L40.3006 0.920898ZM48.6519 11.0943V11.2218L48.6763 11.207L48.6636 11.1007L48.6519 11.0943Z"></path></svg>