<svg xmlns="http://www.w3.org/2000/svg" width="131" height="40" viewBox="0 0 131 40" fill="black"><path d="M60.4185 0.510742L60.5279 4.04766L59.6892 4.08412C59.6163 1.89634 59.1787 1.60463 55.8606 1.60463H55.1678V14.1479C55.1678 15.8617 55.6054 16.3357 57.2827 16.3722L57.3191 16.9556C55.7147 16.9191 54.5115 16.9191 53.7093 16.9191C52.8706 16.9191 51.6309 16.9191 49.99 16.9556L50.0265 16.3722C51.7403 16.3357 52.1414 15.8617 52.1414 14.1479V1.6411H51.3027C47.9116 1.6411 47.4376 1.9328 47.4012 4.12059L46.5625 4.08412L46.6719 0.547205C49.8077 0.583668 52.1049 0.583668 53.6728 0.583668C55.1678 0.583668 57.4285 0.547205 60.4185 0.510742Z"></path><path d="M61.0397 16.4448C62.5712 16.4448 62.79 16.1531 62.79 14.0018V12.5433V4.95898V3.50046C62.7535 1.34913 62.5712 1.05743 61.0397 1.05743L61.0033 0.510483C63.0817 0.401094 63.5557 0.328168 65.4518 0V7.1103C66.655 5.76117 67.7125 5.21422 69.0616 5.21422C71.3223 5.21422 72.5621 6.63628 72.5621 9.26162V12.5798V14.0383C72.5985 16.1896 72.7808 16.4813 74.3123 16.4813L74.3488 17.0283C73.0361 16.9918 72.0151 16.9189 71.3588 16.9189C70.7024 16.9189 69.7909 16.9553 68.5147 17.0283L68.5511 16.4813C69.7544 16.299 69.8638 16.0802 69.9003 14.0383V12.5798V10.5378C69.9003 7.65725 69.3898 6.67274 67.8948 6.67274C67.0561 6.67274 66.181 7.18323 65.8164 7.98541C65.6705 8.27712 65.5976 8.56882 65.4882 8.86053C65.4518 8.96992 65.4518 9.07931 65.4518 9.11577V12.5433V14.0018C65.4518 16.0438 65.5976 16.2625 66.8009 16.4448L66.8374 16.9918C65.5611 16.9553 64.6131 16.8824 63.9568 16.8824C63.3004 16.8824 62.2795 16.9189 60.9668 16.9918L61.0397 16.4448Z"></path><path d="M78.5778 9.66301C80.6927 9.62655 81.3126 9.55362 83.4639 9.33484C83.1722 7.11059 82.3335 6.0167 80.9115 6.0167C79.5259 6.0167 78.7966 7.18352 78.5778 9.66301ZM85.9069 14.7678C84.4848 16.5181 83.0992 17.2838 81.2396 17.2838C78.0673 17.2838 75.916 14.9502 75.916 11.4862C75.916 7.80339 78.1403 5.25098 81.349 5.25098C83.0992 5.25098 84.339 5.90731 85.2141 7.29291C85.7975 8.24095 85.9434 8.93375 85.9798 10.5746H78.6872C78.7601 14.075 80.0363 16.044 82.1512 16.044C83.4274 16.044 84.4484 15.4606 85.5787 14.148L85.9069 14.7678Z"></path><path d="M0.0729262 39.0521C1.93254 39.0156 2.40656 38.5052 2.40656 36.5726V24.5398C2.40656 22.6437 1.93254 22.1332 0.0729262 22.0603L0 21.4404L3.93801 21.5134L10.1367 21.4404L11.7776 21.4769L11.887 25.1961L10.866 25.2691C10.6837 22.9719 10.2461 22.7166 6.59982 22.7166H6.05287L5.79763 22.7531V29.6811C6.27165 29.6811 6.67274 29.7175 6.89152 29.7175C7.29262 29.754 7.69371 29.754 8.05834 29.754C10.1003 29.754 10.5378 29.3165 10.5743 27.3839H11.4494C11.3765 28.9518 11.3765 29.7175 11.3765 30.4833C11.3765 31.1031 11.3765 31.9418 11.4129 33.1086H10.6108C10.5014 31.2855 10.1003 30.9208 8.13127 30.8844L6.74567 30.8479L5.79763 30.8844V36.2444C5.79763 38.3958 5.90702 38.5051 8.05834 38.5051C10.9389 38.5051 11.7776 37.8853 12.0328 35.4058L13.0538 35.4423L12.3974 39.7084L10.4284 39.7449L4.19325 39.7084H0L0.0729262 39.0521Z"></path><path d="M26.1081 37.9214C24.6495 39.4164 23.4463 39.9998 21.769 39.9998C18.4143 39.9998 16.2266 37.3744 16.2266 33.4C16.2266 29.2796 18.5237 26.6543 22.2065 26.6543C23.1545 26.6543 24.1755 26.8366 25.707 27.2377L25.7434 30.3006L24.6131 30.3735C24.1391 28.0764 23.7015 27.5659 22.2065 27.5659C20.3104 27.5659 19.3259 29.2796 19.3259 32.5613C19.3259 36.4264 20.5292 38.5777 22.6805 38.5777C23.8109 38.5777 24.7225 38.1037 25.7434 37.0098L26.1081 37.9214Z"></path><path d="M31.9789 33.5465C32.2342 37.1928 33.4375 39.1253 35.37 39.1253C37.1932 39.1253 38.287 37.2292 38.287 34.0205C38.287 30.2648 36.7921 27.603 34.7137 27.603C32.854 27.603 31.906 29.2074 31.906 32.3797C31.906 32.7807 31.906 33.1818 31.9789 33.5465ZM28.8066 33.8382V33.4735C28.8066 29.1709 31.1038 26.6914 35.0783 26.6914C38.7611 26.6914 41.3499 29.4261 41.3499 33.3642C41.3499 37.3386 38.834 40.0369 35.0054 40.0369C31.3955 40.0004 28.9525 37.5574 28.8066 33.8382Z"></path><path d="M44.485 39.1247C46.1988 39.1247 46.454 38.7965 46.454 36.39V34.7856V32.1238V30.4829C46.454 28.1128 46.1988 27.7847 44.485 27.7482L44.4486 27.1648C46.7093 27.0554 47.2198 26.946 49.1523 26.5449L49.2617 28.8421C50.7202 27.2013 51.8141 26.6178 53.382 26.6178C55.8615 26.6178 57.2471 28.2222 57.2471 31.1028V34.1657V36.3535C57.2106 36.5723 57.2106 36.7546 57.2106 36.9734C57.2106 38.6142 57.6482 39.0882 59.1797 39.0882L59.2161 39.7081C57.7576 39.6716 56.6272 39.5987 55.898 39.5987C55.1687 39.5987 54.1113 39.6352 52.7257 39.7081L52.7622 39.0882C54.1113 38.8694 54.2571 38.6142 54.2571 36.3535L54.2936 34.7491V32.4884C54.2936 29.2797 53.7102 28.2222 52.0694 28.2222C51.0849 28.2222 50.2462 28.7692 49.7357 29.6807C49.5169 30.0454 49.3711 30.6653 49.3711 30.9205V34.7491V36.3535C49.4075 38.6142 49.5169 38.8694 50.8661 39.0882L50.939 39.7081C49.5169 39.6716 48.4595 39.5987 47.7302 39.5987C47.001 39.5987 45.9071 39.6352 44.4121 39.7081L44.485 39.1247Z"></path><path d="M64.6489 33.5465C64.9041 37.1928 66.1074 39.1253 68.0399 39.1253C69.8631 39.1253 70.957 37.2292 70.957 34.0205C70.957 30.2648 69.462 27.603 67.3836 27.603C65.524 27.603 64.5759 29.2074 64.5759 32.3797C64.5759 32.7807 64.5759 33.1818 64.6489 33.5465ZM61.4766 33.8382V33.4735C61.4766 29.1709 63.7737 26.6914 67.7482 26.6914C71.431 26.6914 74.0199 29.4261 74.0199 33.3642C74.0199 37.3386 71.5039 40.0369 67.6753 40.0369C64.0654 40.0004 61.6224 37.5574 61.4766 33.8382Z"></path><path d="M77.1556 39.1247C78.8694 39.1247 79.1246 38.7965 79.1246 36.39V34.7856V32.1238V30.4829C79.1246 28.1128 78.8694 27.7847 77.1556 27.7482L77.1192 27.1648C79.3799 27.0554 79.8903 26.946 81.8229 26.5449L81.9323 28.8421C83.3908 27.2377 84.4847 26.6178 86.0161 26.6178C87.7299 26.6178 88.7509 27.3471 89.5166 29.0244C91.0845 27.2377 92.2149 26.6178 93.7463 26.6178C96.1529 26.6178 97.5385 28.2587 97.5385 31.1028V34.1657V36.3535C97.5385 36.5723 97.502 36.7546 97.502 36.9734C97.502 38.6142 97.976 39.0882 99.471 39.0882L99.5075 39.7081C98.049 39.6716 96.9186 39.5987 96.1893 39.5987C95.4601 39.5987 94.4391 39.6352 93.0535 39.7081L93.09 39.0882C94.4391 38.8694 94.5485 38.6142 94.585 36.3535V34.7491V32.4884C94.585 29.3526 94.038 28.2222 92.4336 28.2222C91.4856 28.2222 90.5376 28.8421 90.1365 29.6807C90.0271 29.9725 89.8812 30.3006 89.8083 30.6288C89.7718 30.7382 89.7718 30.8476 89.7718 30.9205V34.7491V36.3535C89.7718 38.6142 89.9177 38.8694 91.2668 39.0882L91.3033 39.7081C89.9542 39.6716 88.9332 39.5987 88.2404 39.5987C87.5841 39.5987 86.5996 39.6352 85.2504 39.7081L85.2869 39.0882C86.636 38.8694 86.7454 38.6142 86.7819 36.3535V34.7491V32.4884C86.7819 29.3526 86.2349 28.2222 84.6305 28.2222C83.6825 28.2222 82.8074 28.7692 82.3334 29.6807C82.1146 30.0818 81.9687 30.6653 81.9687 30.9205V34.7491V36.3535C82.0052 38.6142 82.1146 38.8694 83.4637 39.0882L83.5002 39.7081C82.1146 39.6716 81.0207 39.5987 80.3279 39.5987C79.5986 39.5987 78.5048 39.6352 77.0098 39.7081L77.1556 39.1247Z"></path><path d="M103.627 22.3515C103.627 21.4034 104.393 20.6377 105.341 20.6377C106.289 20.6377 107.055 21.4399 107.055 22.3515C107.055 23.336 106.325 24.0652 105.341 24.0652C104.356 24.0652 103.627 23.336 103.627 22.3515ZM106.909 26.5812V34.7854L106.945 36.3897C106.945 38.7963 107.164 39.1245 108.914 39.1245L108.951 39.7444C107.383 39.7079 106.216 39.635 105.45 39.635C104.685 39.635 103.554 39.6714 101.986 39.7444L102.023 39.1245C103.737 39.1245 103.992 38.7963 103.992 36.3897L104.028 34.7854V32.1236L103.992 30.4827C103.992 28.1126 103.737 27.7845 102.023 27.748L101.986 27.1646C104.32 27.0552 104.83 26.9458 106.909 26.5812Z"></path><path d="M112.051 39.2709L111.941 36.682L113.254 36.6455C113.837 38.6145 114.202 38.9792 115.551 38.9792C116.718 38.9792 117.484 38.3593 117.484 37.4477C117.484 36.5726 116.937 35.9163 115.332 34.8224C114.53 34.2754 113.947 33.8743 113.655 33.6555C112.999 33.1451 112.525 32.5252 112.27 31.8324C112.124 31.4678 112.051 30.9937 112.051 30.4468C112.051 28.1496 113.619 26.6182 116.025 26.6182C116.9 26.6182 117.411 26.6911 119.489 27.1651L119.526 29.7175L118.213 29.754C117.921 28.0402 117.374 27.4568 116.171 27.4568C115.041 27.4568 114.202 28.1131 114.202 29.0612C114.202 29.9363 114.603 30.4833 115.916 31.3219C117.119 32.1241 118.067 32.8169 118.687 33.3638C119.416 34.0566 119.817 34.9317 119.817 35.9163C119.817 38.177 117.921 39.8907 115.478 39.8907C114.567 40.0001 113.692 39.7813 112.051 39.2709Z"></path><path d="M122.552 27.3836C124.558 27.2378 125.36 26.3626 125.943 23.7373H127.074V27.1648H130.282L129.918 28.5504H127.074V34.8221C127.074 37.9579 127.475 38.6872 129.225 38.6872C129.626 38.6872 130.027 38.6507 130.61 38.4684V39.1977C129.735 39.6717 128.568 39.9634 127.329 39.9634C126.198 39.9634 125.141 39.3435 124.667 38.3955C124.302 37.5933 124.156 36.8276 124.156 35.0773V28.5504H122.516V27.3836H122.552Z"></path></svg>